<svg width="623" height="80" viewBox="0 0 623 80" fill="none" xmlns="http://www.w3.org/2000/svg">
<path d="M36.3336 1H582.791H621.372L582.177 78.3099H36.9754L1.55807 1H36.3336Z" fill="#CB6161" stroke="#65748F" stroke-width="2"/>
<path d="M36.3336 1H582.791H621.372L582.177 78.3099H36.9754L1.55807 1H36.3336Z" fill="#CB6161" stroke="#65748F" stroke-width="2"/>
<path d="M580.821 78.5803L582.841 74.5186L584.728 75.4569L582.707 79.5186L580.821 78.5803Z" fill="#D9D9D9"/>
<path d="M582.301 79.31L578.127 79.31L578.127 77.2229L582.301 77.2229L582.301 79.31Z" fill="#D9D9D9"/>
<path d="M38.1433 78.3303L36.2268 74.0918L34.4374 75.071L36.354 79.3096L38.1433 78.3303Z" fill="#D9D9D9"/>
<path d="M36.354 79.3096H40.6987V76.9138L36.7392 76.9138L36.354 79.3096Z" fill="#D9D9D9"/>
<path d="M580.794 76.985L618.826 2.60919" stroke="#8BB6B6"/>
<path d="M619.58 2.6084L3.13096 2.6084" stroke="#8BB6B6"/>
<path d="M3.65262 2.60923L38.0444 77.011" stroke="#8BB6B6"/>
<line x1="37.5679" y1="76.7227" x2="581.258" y2="76.7227" stroke="#8BB6B6"/>
<rect x="305.761" y="77.2227" width="11.4791" height="2.0871" fill="#D9D9D9"/>
</svg>
