<svg width="1015" height="130" viewBox="0 0 1015 130" fill="none" xmlns="http://www.w3.org/2000/svg">
<path d="M59.1952 1H949.491H1013.37L948.876 128.213H59.837L1.55807 1H59.1952Z" fill="#CB6161" stroke="#65748F" stroke-width="2"/>
<path d="M59.1952 1H949.491H1013.37L948.876 128.213H59.837L1.55807 1H59.1952Z" fill="#7ac2c0" stroke="#65748F" stroke-width="2"/>
<path d="M946.282 128.024L949.573 121.406L952.647 122.935L949.355 129.552L946.282 128.024Z" fill="#D9D9D9"/>
<path d="M948.693 129.212L941.893 129.212L941.893 125.812L948.693 125.812L948.693 129.212Z" fill="#D9D9D9"/>
<path d="M62.1433 127.617L59.0208 120.712L56.1056 122.307L59.2281 129.213L62.1433 127.617Z" fill="#D9D9D9"/>
<path d="M59.2281 129.213H66.3066V125.31L59.8557 125.31L59.2281 129.213Z" fill="#D9D9D9"/>
<path d="M946.238 125.425L1008.2 4.25086" stroke="#8BB6B6"/>
<path d="M1009.43 4.25L5.10129 4.25" stroke="#8BB6B6"/>
<path d="M5.95104 4.25083L61.9826 125.467" stroke="#8BB6B6"/>
<line x1="61.2061" y1="125.312" x2="946.993" y2="125.312" stroke="#8BB6B6"/>
<rect x="498.149" y="125.812" width="18.7018" height="3.40034" fill="#D9D9D9"/>
</svg>
